<?xml version="1.0" encoding="UTF-8" standalone="no"?>
<!DOCTYPE svg PUBLIC "-//W3C//DTD SVG 1.1//EN"
 "http://www.w3.org/Graphics/SVG/1.1/DTD/svg11.dtd">
<!-- Generated by graphviz version 12.2.1 (0)
 -->
<!-- Title: egraph Pages: 1 -->
<svg width="595pt" height="220pt"
 viewBox="0.00 0.00 595.00 220.00" xmlns="http://www.w3.org/2000/svg" xmlns:xlink="http://www.w3.org/1999/xlink">
<g id="graph0" class="graph" transform="scale(1 1) rotate(0) translate(4 216)">
<title>egraph</title>
<polygon fill="white" stroke="none" points="-4,4 -4,-216 591,-216 591,4 -4,4"/>
<g id="clust1" class="cluster">
<title>cluster_0</title>
<polygon fill="none" stroke="black" stroke-dasharray="1,5" points="353,-8 353,-60 423,-60 423,-8 353,-8"/>
</g>
<g id="clust2" class="cluster">
<title>cluster_7</title>
<polygon fill="none" stroke="black" stroke-dasharray="1,5" points="125,-80 125,-132 195,-132 195,-80 125,-80"/>
</g>
<g id="clust3" class="cluster">
<title>cluster_3</title>
<polygon fill="none" stroke="black" stroke-dasharray="1,5" points="275,-80 275,-132 345,-132 345,-80 275,-80"/>
</g>
<g id="clust4" class="cluster">
<title>cluster_11</title>
<polygon fill="none" stroke="black" stroke-dasharray="1,5" points="353,-80 353,-132 423,-132 423,-80 353,-80"/>
</g>
<g id="clust5" class="cluster">
<title>cluster_10</title>
<polygon fill="none" stroke="black" stroke-dasharray="1,5" points="8,-152 8,-204 78,-204 78,-152 8,-152"/>
</g>
<g id="clust6" class="cluster">
<title>cluster_6</title>
<polygon fill="none" stroke="black" stroke-dasharray="1,5" points="314,-152 314,-204 384,-204 384,-152 314,-152"/>
</g>
<g id="clust7" class="cluster">
<title>cluster_2</title>
<polygon fill="none" stroke="black" stroke-dasharray="1,5" points="431,-80 431,-132 501,-132 501,-80 431,-80"/>
</g>
<g id="clust8" class="cluster">
<title>cluster_9</title>
<polygon fill="none" stroke="black" stroke-dasharray="1,5" points="86,-152 86,-204 156,-204 156,-152 86,-152"/>
</g>
<g id="clust9" class="cluster">
<title>cluster_5</title>
<polygon fill="none" stroke="black" stroke-dasharray="1,5" points="392,-152 392,-204 462,-204 462,-152 392,-152"/>
</g>
<g id="clust10" class="cluster">
<title>cluster_1</title>
<polygon fill="none" stroke="black" stroke-dasharray="1,5" points="509,-80 509,-132 579,-132 579,-80 509,-80"/>
</g>
<g id="clust11" class="cluster">
<title>cluster_4</title>
<polygon fill="none" stroke="black" stroke-dasharray="1,5" points="164,-152 164,-204 306,-204 306,-152 164,-152"/>
</g>
<!-- 0.0 -->
<g id="node1" class="node">
<title>0.0</title>
<ellipse fill="none" stroke="black" cx="388" cy="-34" rx="27" ry="18"/>
<text text-anchor="middle" x="388" y="-28.95" font-family="Times,serif" font-size="14.00">g</text>
</g>
<!-- 7.0 -->
<g id="node2" class="node">
<title>7.0</title>
<ellipse fill="none" stroke="black" cx="160" cy="-106" rx="27" ry="18"/>
<text text-anchor="middle" x="160" y="-100.95" font-family="Times,serif" font-size="14.00">.p2</text>
</g>
<!-- 7.0&#45;&gt;0.0 -->
<g id="edge1" class="edge">
<title>7.0&#45;&gt;0.0</title>
<path fill="none" stroke="black" d="M184.4,-97.51C224.94,-85.06 306.32,-60.08 352.98,-45.75"/>
<polygon fill="black" stroke="black" points="355.9,-57.12 352.92,-46.95 348.91,-56.75 355.9,-57.12"/>
</g>
<!-- 3.0 -->
<g id="node3" class="node">
<title>3.0</title>
<ellipse fill="none" stroke="black" cx="310" cy="-106" rx="27" ry="18"/>
<text text-anchor="middle" x="310" y="-100.95" font-family="Times,serif" font-size="14.00">.p1</text>
</g>
<!-- 3.0&#45;&gt;0.0 -->
<g id="edge2" class="edge">
<title>3.0&#45;&gt;0.0</title>
<path fill="none" stroke="black" d="M325.41,-91.17C332.99,-84.37 342.47,-75.86 351.75,-67.53"/>
<polygon fill="black" stroke="black" points="353.92,-70.29 359.02,-61.01 349.24,-65.08 353.92,-70.29"/>
</g>
<!-- 11.0 -->
<g id="node4" class="node">
<title>11.0</title>
<ellipse fill="none" stroke="black" cx="388" cy="-106" rx="27" ry="18"/>
<text text-anchor="middle" x="388" y="-100.95" font-family="Times,serif" font-size="14.00">._</text>
</g>
<!-- 11.0&#45;&gt;0.0 -->
<g id="edge3" class="edge">
<title>11.0&#45;&gt;0.0</title>
<path fill="none" stroke="black" d="M388,-87.7C388,-80.41 388,-71.73 388,-63.54"/>
<polygon fill="black" stroke="black" points="391.5,-71.51 388,-61.51 384.5,-71.51 391.5,-71.51"/>
</g>
<!-- 10.0 -->
<g id="node5" class="node">
<title>10.0</title>
<ellipse fill="none" stroke="black" cx="43" cy="-178" rx="27" ry="18"/>
<text text-anchor="middle" x="43" y="-172.95" font-family="Times,serif" font-size="14.00">.e2</text>
</g>
<!-- 10.0&#45;&gt;7.0 -->
<g id="edge4" class="edge">
<title>10.0&#45;&gt;7.0</title>
<path fill="none" stroke="black" d="M61.93,-164.61C68.27,-160.53 75.4,-156.01 82,-152 92.67,-145.5 104.29,-138.68 115.21,-132.36"/>
<polygon fill="black" stroke="black" points="116.77,-135.5 123.69,-127.48 113.28,-129.44 116.77,-135.5"/>
</g>
<!-- 6.0 -->
<g id="node6" class="node">
<title>6.0</title>
<ellipse fill="none" stroke="black" cx="349" cy="-178" rx="27" ry="18"/>
<text text-anchor="middle" x="349" y="-172.95" font-family="Times,serif" font-size="14.00">.e2</text>
</g>
<!-- 6.0&#45;&gt;3.0 -->
<g id="edge5" class="edge">
<title>6.0&#45;&gt;3.0</title>
<path fill="none" stroke="black" d="M339.95,-160.76C335.38,-152.55 329.71,-142.37 324.54,-133.09"/>
<polygon fill="black" stroke="black" points="334.41,-135.8 324.23,-132.88 330.36,-141.51 334.41,-135.8"/>
</g>
<!-- 2.0 -->
<g id="node7" class="node">
<title>2.0</title>
<ellipse fill="none" stroke="black" cx="466" cy="-106" rx="27" ry="18"/>
<text text-anchor="middle" x="466" y="-100.95" font-family="Times,serif" font-size="14.00">.z</text>
</g>
<!-- 2.0&#45;&gt;0.0 -->
<g id="edge6" class="edge">
<title>2.0&#45;&gt;0.0</title>
<path fill="none" stroke="black" d="M450.59,-91.17C443.01,-84.37 433.53,-75.86 424.25,-67.53"/>
<polygon fill="black" stroke="black" points="426.76,-65.08 416.98,-61.01 422.08,-70.29 426.76,-65.08"/>
</g>
<!-- 9.0 -->
<g id="node8" class="node">
<title>9.0</title>
<ellipse fill="none" stroke="black" cx="121" cy="-178" rx="27" ry="18"/>
<text text-anchor="middle" x="121" y="-172.95" font-family="Times,serif" font-size="14.00">.e1</text>
</g>
<!-- 9.0&#45;&gt;7.0 -->
<g id="edge7" class="edge">
<title>9.0&#45;&gt;7.0</title>
<path fill="none" stroke="black" d="M130.05,-160.76C134.62,-152.55 140.29,-142.37 145.46,-133.09"/>
<polygon fill="black" stroke="black" points="139.64,-141.51 145.77,-132.88 135.59,-135.8 139.64,-141.51"/>
</g>
<!-- 5.0 -->
<g id="node9" class="node">
<title>5.0</title>
<ellipse fill="none" stroke="black" cx="427" cy="-178" rx="27" ry="18"/>
<text text-anchor="middle" x="427" y="-172.95" font-family="Times,serif" font-size="14.00">.e1</text>
</g>
<!-- 5.0&#45;&gt;3.0 -->
<g id="edge8" class="edge">
<title>5.0&#45;&gt;3.0</title>
<path fill="none" stroke="black" d="M408.58,-164.68C402.15,-160.51 394.83,-155.93 388,-152 374.15,-144.03 368.14,-142.21 354.9,-135.16"/>
<polygon fill="black" stroke="black" points="356.76,-132.19 346.32,-130.39 353.36,-138.31 356.76,-132.19"/>
</g>
<!-- 1.0 -->
<g id="node10" class="node">
<title>1.0</title>
<ellipse fill="none" stroke="black" cx="544" cy="-106" rx="27" ry="18"/>
<text text-anchor="middle" x="544" y="-100.95" font-family="Times,serif" font-size="14.00">.x</text>
</g>
<!-- 1.0&#45;&gt;0.0 -->
<g id="edge9" class="edge">
<title>1.0&#45;&gt;0.0</title>
<path fill="none" stroke="black" d="M525.81,-92.25C519.4,-88.06 512.03,-83.56 505,-80 482.21,-68.46 455.73,-58.05 433.73,-50.15"/>
<polygon fill="black" stroke="black" points="435.02,-46.89 424.43,-46.87 432.69,-53.5 435.02,-46.89"/>
</g>
<!-- 4.0 -->
<g id="node11" class="node">
<title>4.0</title>
<ellipse fill="none" stroke="black" cx="271" cy="-178" rx="27" ry="18"/>
<text text-anchor="middle" x="271" y="-172.95" font-family="Times,serif" font-size="14.00">.y</text>
</g>
<!-- 4.0&#45;&gt;3.0 -->
<g id="edge10" class="edge">
<title>4.0&#45;&gt;3.0</title>
<path fill="none" stroke="black" d="M280.05,-160.76C284.62,-152.55 290.29,-142.37 295.46,-133.09"/>
<polygon fill="black" stroke="black" points="289.64,-141.51 295.77,-132.88 285.59,-135.8 289.64,-141.51"/>
</g>
<!-- 4.1 -->
<g id="node12" class="node">
<title>4.1</title>
<ellipse fill="none" stroke="black" cx="199" cy="-178" rx="27" ry="18"/>
<text text-anchor="middle" x="199" y="-172.95" font-family="Times,serif" font-size="14.00">.y</text>
</g>
<!-- 4.1&#45;&gt;7.0 -->
<g id="edge11" class="edge">
<title>4.1&#45;&gt;7.0</title>
<path fill="none" stroke="black" d="M189.95,-160.76C185.38,-152.55 179.71,-142.37 174.54,-133.09"/>
<polygon fill="black" stroke="black" points="184.41,-135.8 174.23,-132.88 180.36,-141.51 184.41,-135.8"/>
</g>
</g>
</svg>
