<?xml version="1.0" encoding="UTF-8" standalone="no"?>
<!DOCTYPE svg PUBLIC "-//W3C//DTD SVG 1.1//EN"
 "http://www.w3.org/Graphics/SVG/1.1/DTD/svg11.dtd">
<!-- Generated by graphviz version 12.2.1 (0)
 -->
<!-- Title: egraph Pages: 1 -->
<svg width="704pt" height="220pt"
 viewBox="0.00 0.00 704.00 220.00" xmlns="http://www.w3.org/2000/svg" xmlns:xlink="http://www.w3.org/1999/xlink">
<g id="graph0" class="graph" transform="scale(1 1) rotate(0) translate(4 216)">
<title>egraph</title>
<polygon fill="white" stroke="none" points="-4,4 -4,-216 700,-216 700,4 -4,4"/>
<g id="clust1" class="cluster">
<title>cluster_11</title>
<polygon fill="none" stroke="black" stroke-dasharray="1,5" points="158,-152 158,-204 230,-204 230,-152 158,-152"/>
</g>
<g id="clust2" class="cluster">
<title>cluster_19</title>
<polygon fill="none" stroke="black" stroke-dasharray="1,5" points="8,-80 8,-132 86,-132 86,-80 8,-80"/>
</g>
<g id="clust3" class="cluster">
<title>cluster_10</title>
<polygon fill="none" stroke="black" stroke-dasharray="1,5" points="68,-152 68,-204 150,-204 150,-152 68,-152"/>
</g>
<g id="clust4" class="cluster">
<title>cluster_6</title>
<polygon fill="none" stroke="black" stroke-dasharray="1,5" points="126,-80 126,-132 430,-132 430,-80 126,-80"/>
</g>
<g id="clust5" class="cluster">
<title>cluster_2</title>
<polygon fill="none" stroke="black" stroke-dasharray="1,5" points="306,-8 306,-60 376,-60 376,-8 306,-8"/>
</g>
<g id="clust6" class="cluster">
<title>cluster_20</title>
<polygon fill="none" stroke="black" stroke-dasharray="1,5" points="288,-152 288,-204 380,-204 380,-152 288,-152"/>
</g>
<g id="clust7" class="cluster">
<title>cluster_5</title>
<polygon fill="none" stroke="black" stroke-dasharray="1,5" points="526,-152 526,-204 596,-204 596,-152 526,-152"/>
</g>
<g id="clust8" class="cluster">
<title>cluster_1</title>
<polygon fill="none" stroke="black" stroke-dasharray="1,5" points="610,-152 610,-204 684,-204 684,-152 610,-152"/>
</g>
<g id="clust9" class="cluster">
<title>cluster_4</title>
<polygon fill="none" stroke="black" stroke-dasharray="1,5" points="470,-80 470,-132 688,-132 688,-80 470,-80"/>
</g>
<g id="clust10" class="cluster">
<title>cluster_15</title>
<polygon fill="none" stroke="black" stroke-dasharray="1,5" points="413,-152 413,-204 505,-204 505,-152 413,-152"/>
</g>
<!-- 11.0 -->
<g id="node1" class="node">
<title>11.0</title>
<ellipse fill="none" stroke="black" cx="194" cy="-178" rx="27.81" ry="18"/>
<text text-anchor="middle" x="194" y="-172.95" font-family="Times,serif" font-size="14.00">.unit</text>
</g>
<!-- 6.0 -->
<g id="node4" class="node">
<title>6.0</title>
<ellipse fill="none" stroke="black" cx="161" cy="-106" rx="27" ry="18"/>
<text text-anchor="middle" x="161" y="-100.95" font-family="Times,serif" font-size="14.00">y</text>
</g>
<!-- 11.0&#45;&gt;6.0 -->
<g id="edge1" class="edge">
<title>11.0&#45;&gt;6.0</title>
<path fill="none" stroke="black" d="M186.18,-160.41C182.44,-152.48 177.87,-142.78 173.65,-133.84"/>
<polygon fill="black" stroke="black" points="180.92,-140.85 173.42,-133.36 174.62,-143.89 180.92,-140.85"/>
</g>
<!-- 19.0 -->
<g id="node2" class="node">
<title>19.0</title>
<ellipse fill="none" stroke="black" cx="47" cy="-106" rx="31.39" ry="18"/>
<text text-anchor="middle" x="47" y="-100.95" font-family="Times,serif" font-size="14.00">.isinv</text>
</g>
<!-- 2.0 -->
<g id="node8" class="node">
<title>2.0</title>
<ellipse fill="none" stroke="black" cx="341" cy="-34" rx="27" ry="18"/>
<text text-anchor="middle" x="341" y="-28.95" font-family="Times,serif" font-size="14.00">x</text>
</g>
<!-- 19.0&#45;&gt;2.0 -->
<g id="edge2" class="edge">
<title>19.0&#45;&gt;2.0</title>
<path fill="none" stroke="black" d="M67.39,-91.81C74.88,-87.48 83.58,-83.01 92,-80 164.01,-54.29 253.2,-42.74 302.92,-37.98"/>
<polygon fill="black" stroke="black" points="296.17,-43.9 304.56,-37.44 293.97,-37.25 296.17,-43.9"/>
</g>
<!-- 10.0 -->
<g id="node3" class="node">
<title>10.0</title>
<ellipse fill="none" stroke="black" cx="109" cy="-178" rx="33.44" ry="18"/>
<text text-anchor="middle" x="109" y="-172.95" font-family="Times,serif" font-size="14.00">.assoc</text>
</g>
<!-- 10.0&#45;&gt;6.0 -->
<g id="edge3" class="edge">
<title>10.0:sw&#45;&gt;6.0</title>
<path fill="none" stroke="black" d="M92.87,-160.87C89.93,-157.93 102.16,-147.53 117.03,-136.64"/>
<polygon fill="black" stroke="black" points="118.67,-139.77 124.77,-131.11 114.6,-134.08 118.67,-139.77"/>
</g>
<!-- 10.0&#45;&gt;6.0 -->
<g id="edge5" class="edge">
<title>10.0:se&#45;&gt;6.0</title>
<path fill="none" stroke="black" d="M125.13,-160.87C133.3,-152.7 140.69,-142.4 146.62,-133.01"/>
<polygon fill="black" stroke="black" points="142.9,-143.15 146.48,-133.18 137.46,-138.74 142.9,-143.15"/>
</g>
<!-- 10.0&#45;&gt;2.0 -->
<g id="edge4" class="edge">
<title>10.0:s&#45;&gt;2.0</title>
<path fill="none" stroke="black" d="M109,-158.68C109,-123.24 97.43,-105.55 122,-80 146.49,-54.54 246.9,-42.53 302.87,-37.72"/>
<polygon fill="black" stroke="black" points="295.94,-43.4 304.55,-37.23 293.97,-36.69 295.94,-43.4"/>
</g>
<!-- 6.1 -->
<g id="node5" class="node">
<title>6.1</title>
<ellipse fill="none" stroke="black" cx="233" cy="-106" rx="27" ry="18"/>
<text text-anchor="middle" x="233" y="-100.95" font-family="Times,serif" font-size="14.00">.inv</text>
</g>
<!-- 6.1&#45;&gt;2.0 -->
<g id="edge6" class="edge">
<title>6.1&#45;&gt;2.0</title>
<path fill="none" stroke="black" d="M250.83,-92.37C256.59,-88.35 263.03,-83.94 269,-80 277.77,-74.22 287.23,-68.17 296.33,-62.45"/>
<polygon fill="black" stroke="black" points="298.1,-65.47 304.72,-57.2 294.38,-59.54 298.1,-65.47"/>
</g>
<!-- 6.2 -->
<g id="node6" class="node">
<title>6.2</title>
<ellipse fill="none" stroke="black" cx="305" cy="-106" rx="27" ry="18"/>
<text text-anchor="middle" x="305" y="-100.95" font-family="Times,serif" font-size="14.00">.op</text>
</g>
<!-- 6.2&#45;&gt;6.2 -->
<g id="edge8" class="edge">
<title>6.2:se&#45;&gt;6.2:n</title>
<path fill="none" stroke="black" d="M320.02,-90.98C335.02,-72.98 350,-72.98 350,-107.65 350,-136.63 329.04,-141.39 313.4,-131.65"/>
<polygon fill="black" stroke="black" points="315.97,-129.26 306.14,-125.32 311.37,-134.53 315.97,-129.26"/>
</g>
<!-- 4.0 -->
<g id="node12" class="node">
<title>4.0</title>
<ellipse fill="none" stroke="black" cx="507" cy="-106" rx="29.34" ry="18"/>
<text text-anchor="middle" x="507" y="-100.95" font-family="Times,serif" font-size="14.00">.zero</text>
</g>
<!-- 6.2&#45;&gt;4.0 -->
<g id="edge7" class="edge">
<title>6.2:sw&#45;&gt;4.0</title>
<path fill="none" stroke="black" d="M289.98,-88C237.35,-35.37 394.05,-74.34 469.22,-95.15"/>
<polygon fill="black" stroke="black" points="460.3,-89.07 469.09,-94.98 465.9,-84.88 460.3,-89.07"/>
</g>
<!-- 6.3 -->
<g id="node7" class="node">
<title>6.3</title>
<ellipse fill="none" stroke="black" cx="395" cy="-106" rx="27" ry="18"/>
<text text-anchor="middle" x="395" y="-100.95" font-family="Times,serif" font-size="14.00">.op</text>
</g>
<!-- 6.3&#45;&gt;6.3 -->
<g id="edge9" class="edge">
<title>6.3:sw&#45;&gt;6.3:n</title>
<path fill="none" stroke="black" d="M379.98,-90.98C364.98,-72.98 350,-72.98 350,-107.65 350,-136.63 370.96,-141.39 386.6,-131.65"/>
<polygon fill="black" stroke="black" points="388.63,-134.53 393.86,-125.32 384.03,-129.26 388.63,-134.53"/>
</g>
<!-- 6.3&#45;&gt;4.0 -->
<g id="edge10" class="edge">
<title>6.3:se&#45;&gt;4.0</title>
<path fill="none" stroke="black" d="M411.02,-90.98C423.56,-74.7 442.06,-72.97 459.41,-77.17"/>
<polygon fill="black" stroke="black" points="457.97,-80.39 468.56,-80.02 460.05,-73.7 457.97,-80.39"/>
</g>
<!-- 20.0 -->
<g id="node9" class="node">
<title>20.0</title>
<ellipse fill="none" stroke="black" cx="334" cy="-178" rx="37.53" ry="18"/>
<text text-anchor="middle" x="334" y="-172.95" font-family="Times,serif" font-size="14.00">.comm</text>
</g>
<!-- 20.0&#45;&gt;6.0 -->
<g id="edge12" class="edge">
<title>20.0:se&#45;&gt;6.0</title>
<path fill="none" stroke="black" d="M350.35,-160.65C396.79,-114.21 275.05,-154.03 207.7,-135.64"/>
<polygon fill="black" stroke="black" points="209.03,-132.39 198.43,-132.49 206.77,-139.02 209.03,-132.39"/>
</g>
<!-- 20.0&#45;&gt;2.0 -->
<g id="edge11" class="edge">
<title>20.0:sw&#45;&gt;2.0</title>
<path fill="none" stroke="black" d="M317.65,-160.65C279.99,-122.99 401.15,-173.92 434,-132 448.26,-113.81 446.28,-99.58 434,-80 421.7,-60.38 398.16,-49.11 377.84,-42.75"/>
<polygon fill="black" stroke="black" points="387.73,-44.37 377.31,-42.45 384.26,-50.45 387.73,-44.37"/>
</g>
<!-- 5.0 -->
<g id="node10" class="node">
<title>5.0</title>
<ellipse fill="none" stroke="black" cx="561" cy="-178" rx="27" ry="18"/>
<text text-anchor="middle" x="561" y="-172.95" font-family="Times,serif" font-size="14.00">_</text>
</g>
<!-- 1.0 -->
<g id="node11" class="node">
<title>1.0</title>
<ellipse fill="none" stroke="black" cx="647" cy="-178" rx="29.34" ry="18"/>
<text text-anchor="middle" x="647" y="-172.95" font-family="Times,serif" font-size="14.00">.zero</text>
</g>
<!-- 4.1 -->
<g id="node13" class="node">
<title>4.1</title>
<ellipse fill="none" stroke="black" cx="581" cy="-106" rx="27" ry="18"/>
<text text-anchor="middle" x="581" y="-100.95" font-family="Times,serif" font-size="14.00">.op</text>
</g>
<!-- 4.1&#45;&gt;6.0 -->
<g id="edge14" class="edge">
<title>4.1:se&#45;&gt;6.0</title>
<path fill="none" stroke="black" d="M596.02,-88C692.85,8.84 434.74,-40.41 275.58,-77.47"/>
<polygon fill="black" stroke="black" points="275.19,-73.97 266.25,-79.66 276.78,-80.78 275.19,-73.97"/>
</g>
<!-- 4.1&#45;&gt;2.0 -->
<g id="edge13" class="edge">
<title>4.1:sw&#45;&gt;2.0</title>
<path fill="none" stroke="black" d="M565.98,-89.98C539.92,-63.92 435.76,-46.98 378.76,-39.47"/>
<polygon fill="black" stroke="black" points="387.91,-37.32 377.5,-39.28 386.86,-44.24 387.91,-37.32"/>
</g>
<!-- 4.2 -->
<g id="node14" class="node">
<title>4.2</title>
<ellipse fill="none" stroke="black" cx="653" cy="-106" rx="27" ry="18"/>
<text text-anchor="middle" x="653" y="-100.95" font-family="Times,serif" font-size="14.00">.op</text>
</g>
<!-- 4.2&#45;&gt;6.0 -->
<g id="edge15" class="edge">
<title>4.2:sw&#45;&gt;6.0</title>
<path fill="none" stroke="black" d="M637.98,-88C633.59,-83.61 628.73,-83.97 624,-88 604.96,-104.25 630.87,-131.82 608,-142 587.6,-151.09 227.07,-149.39 206,-142 202.97,-140.94 199.99,-139.57 197.1,-138"/>
<polygon fill="black" stroke="black" points="199.25,-135.22 188.93,-132.81 195.49,-141.13 199.25,-135.22"/>
</g>
<!-- 4.2&#45;&gt;2.0 -->
<g id="edge16" class="edge">
<title>4.2:se&#45;&gt;2.0</title>
<path fill="none" stroke="black" d="M668.02,-89.98C709.74,-48.26 474.98,-38.1 379.76,-35.71"/>
<polygon fill="black" stroke="black" points="387.73,-32.77 377.51,-35.55 387.24,-39.75 387.73,-32.77"/>
</g>
<!-- 15.0 -->
<g id="node15" class="node">
<title>15.0</title>
<ellipse fill="none" stroke="black" cx="459" cy="-178" rx="37.53" ry="18"/>
<text text-anchor="middle" x="459" y="-172.95" font-family="Times,serif" font-size="14.00">.comm</text>
</g>
<!-- 15.0&#45;&gt;6.0 -->
<g id="edge17" class="edge">
<title>15.0:sw&#45;&gt;6.0</title>
<path fill="none" stroke="black" d="M442.65,-160.65C406.22,-124.22 267.45,-147.78 207.82,-135.06"/>
<polygon fill="black" stroke="black" points="209.03,-131.76 198.46,-132.41 207.13,-138.5 209.03,-131.76"/>
</g>
<!-- 15.0&#45;&gt;4.0 -->
<g id="edge18" class="edge">
<title>15.0:se&#45;&gt;4.0</title>
<path fill="none" stroke="black" d="M475.35,-160.65C483.13,-152.87 489.72,-142.8 494.85,-133.49"/>
<polygon fill="black" stroke="black" points="491.77,-143.27 495.07,-133.2 486.21,-139.02 491.77,-143.27"/>
</g>
</g>
</svg>
